<svg xmlns="http://www.w3.org/2000/svg" xmlns:xlink="http://www.w3.org/1999/xlink" width="1366" height="485" viewBox="0 0 1366 485">
  <defs>
    <clipPath id="clip-path">
      <rect id="Rectangle_27" data-name="Rectangle 27" width="1366" height="485" transform="translate(0 1116)" fill="none" stroke="#707070" stroke-width="1"/>
    </clipPath>
    <linearGradient id="linear-gradient" x1="1" y1="0.5" x2="0" y2="0.5" gradientUnits="objectBoundingBox">
      <stop offset="0" stop-color="#fdca58"/>
      <stop offset="1" stop-color="#dd1bc6"/>
    </linearGradient>
  </defs>
  <g id="our-slimes-rules-background" transform="translate(0 -1116)" clip-path="url(#clip-path)">
    <g id="Group_27" data-name="Group 27">
      <path id="Path_1" data-name="Path 1" d="M1193.451,1197.052c567.741,117.609,1116.642-46.143,1354.512,133.739,99.082,89.941,62.356,19.762,56.79,266.2-897.337,97.911-1124.584,4.39-1432.229-115.651C1153.156,1383.45,1224.834,1342.5,1193.451,1197.052Z" transform="translate(-1209.994 -66.224)" fill="#fff"/>
      <path id="Path_15" data-name="Path 15" d="M1193.451,1197.052c567.741,120.3,1116.642-47.2,1354.512,136.8,99.082,92,62.356,20.215,56.79,272.3-897.337,100.155-1124.584,4.491-1432.229-118.3C1153.156,1387.721,1224.834,1345.836,1193.451,1197.052Z" transform="matrix(0.999, 0.035, -0.035, 0.999, -1179.019, -121.506)" stroke="rgba(0,0,0,0)" stroke-miterlimit="10" stroke-width="1" fill="url(#linear-gradient)"/>
      <path id="Path_14" data-name="Path 14" d="M1193.451,1197.052c567.741,117.609,1116.642-46.143,1354.512,133.739,99.082,89.941,62.356,19.762,56.79,266.2-897.337,97.911-1124.584,4.39-1432.229-115.651C1153.156,1383.45,1224.834,1342.5,1193.451,1197.052Z" transform="translate(-1209.994 -56.224)" fill="#fff"/>
    </g>
  </g>
</svg>
